<svg xmlns:xlink="http://www.w3.org/1999/xlink" class="c-logo c-hero-home_logo" xmlns="http://www.w3.org/2000/svg" xml:space="preserve" viewBox="0 0 1200 210" width="1665"  height="291" >
    <path style="--index: 5" class="c-logo_path" d="M342.635 122.071L373.921 34.5877L405.939 122.071H342.635ZM444.283 157.006L384.102 0H381.928L332.329 138.075C326.583 154.02 321.898 166.679 317.707 176.515C305.813 202.9 298.901 205.334 290.987 206.155L288.233 206.417V207.218H312.021L341.067 126.506L407.31 126.592L418.999 157.931C430.406 189.291 435.848 204.298 436.791 207.192H464.829C463.194 203.878 457.831 192.204 444.309 156.973" fill="#FFFFFF"></path>
    <path style="--index: 3" class="c-logo_path" d="M553.594 202.611H530.716C517.432 202.611 516.548 196.706 516.548 155.773V49.5818C516.548 46.3008 516.489 43.2038 516.43 40.2969C516.608 7.6515 519.158 4.65897 530.926 4.13402L536.198 3.87169V3.07108H534.314L534.597 3.03824H474.634L474.897 3.07108H472.202V3.87169L477.474 4.13402C489.559 4.66553 491.97 7.79558 492.023 42.7179C491.99 44.903 491.964 47.1602 491.964 49.575V160.668C491.964 184.619 491.054 196.26 487.668 201.969C486.193 203.875 484.095 205.208 481.737 205.735C480.325 205.968 478.898 206.106 477.467 206.148L472.195 206.411V207.211H611.429V202.657C606.382 202.657 579.26 202.598 553.594 202.598" fill="#FFFFFF"></path>
    <path style="--index: 1" class="c-logo_path" d="M697.5 114.111H651.624V68.3684V68.716V54.4048C651.624 13.4455 652.495 7.55964 665.779 7.55964H696.386C702.365 7.46094 708.244 9.10122 713.302 12.2796C718.359 15.458 722.375 20.0364 724.859 25.4538C730.518 37.7945 733.254 51.2645 732.858 64.8251C732.858 108.973 712.702 114.079 697.533 114.079M696.386 3.0119H627.606L627.81 3.04474H607.205V3.83895L612.477 4.11449C624.773 4.63944 627.019 7.86121 627.019 44.5159V207.205H671.465V206.43L666.194 206.155C653.911 205.623 651.651 202.408 651.651 165.753V118.75H697.526C738.624 118.75 763.169 97.9296 763.169 63.0401C763.169 26.2607 736.331 3.04474 696.379 3.04474" fill="#FFFFFF"></path>
    <path style="--index: 3" class="c-logo_path" d="M836.648 206.437L831.377 206.175C819.081 205.63 816.827 202.415 816.827 165.78V68.3617L816.788 68.7162V49.6081C816.788 15.775 816.913 5.64349 816.972 3.05811H793.191L793.395 3.09736H772.382V3.89797L777.653 4.1603C789.935 4.68525 792.196 7.90742 792.196 44.5621V160.707C792.196 194.527 792.058 204.672 792.012 207.257H836.648V206.437Z" fill="#FFFFFF"></path>
    <path style="--index: 0" class="c-logo_path" d="M1025.96 3.0119C1025.99 7.67084 1025.79 175.786 1025.79 175.786L892.17 3.0119H867.657V3.04474H844.878V3.84535L850.149 4.10809C862.432 4.6396 864.699 7.85465 864.699 44.5159V107.825L864.04 207.198H888.77V206.43L883.499 206.155C880.991 206.199 878.499 205.753 876.164 204.842C874.39 203.682 872.93 202.105 871.914 200.249C869.568 195 868.943 184.973 868.943 165.845C869.015 162.564 869.067 159.126 869.067 155.517L869.18 16.1949L1021.83 210H1030.34L1030.52 3.07118L1025.96 3.0119Z" fill="#FFFFFF"></path>
    <path style="--index: 4" class="c-logo_path" d="M1199.92 204.96C1194.95 204.777 1163.8 203.648 1138.28 203.648H1116.82C1103.54 203.648 1102.65 197.742 1102.65 156.803V104.17H1181.38V99.5045H1102.65V54.5818C1102.65 13.6225 1103.54 7.73667 1116.82 7.73667H1132.55C1156.43 7.73667 1188.98 7.77592 1194.19 7.77592V3.0119H1069.3C1069.37 3.01849 1069.44 3.01849 1069.5 3.0119H1058.3V3.81932L1063.57 4.08165C1075.38 4.6066 1077.92 7.61836 1078.1 40.349C1078.1 43.1969 1078.06 46.2549 1078.06 49.5358V160.615C1078.06 195.032 1078.25 205.564 1078.32 208.15L1200 208.333L1199.92 204.96Z" fill="#FFFFFF"></path>
    <path style="--index: 2" class="c-logo_path" d="M197.306 3.05128H177.36L114.695 123.068L44.1884 3.0713H1.17277L1.42977 3.10374H0V3.90435L4.51371 4.16709C16.8029 4.6986 22.0679 7.92021 22.0679 44.5749C22.0679 44.5749 22.2061 202.572 22.1402 207.257H26.3511V23.6164L102.399 151.705H105.318L172.82 20.2434L172.886 160.668C172.886 194.567 172.846 204.633 172.82 207.211H197.333C197.379 204.698 197.484 194.665 197.484 160.668V49.5884C197.484 15.5913 197.379 5.54495 197.333 3.04487" fill="#FFFFFF"></path>
    <path style="--index: 1" class="c-logo_path" d="M275.785 3.68776C241.053 3.68776 223.334 32.5601 223.334 62.3839C223.334 62.6463 223.334 62.9023 223.334 63.1516C223.446 92.9032 241.125 121.585 275.785 121.585C299.797 121.585 314.004 110.141 318.452 88.999L316.027 88.651C314.527 96.9146 310.137 104.383 303.636 109.731C297.135 115.08 288.942 117.963 280.51 117.871C249.494 117.871 245.896 88.5659 245.712 63.1452C245.811 37.5079 248.907 7.57268 280.345 7.17896C285.52 7.08723 290.639 8.25337 295.258 10.5769C299.877 12.9003 303.858 16.3109 306.855 20.5126C310.877 25.91 313.678 32.111 315.065 38.6891C316.032 42.2902 316.717 45.9604 317.114 49.667H317.833V4.79676C317.833 4.79676 287.337 3.66172 275.785 3.66172" fill="#FFFFFF"></path>
</svg>